<svg height="32" viewBox="0 0 32 32" width="32" xmlns="http://www.w3.org/2000/svg"><style>path{fill:#6f839b}@media (prefers-color-scheme:dark){path{fill:#eee8e3}}</style><path d="m1.39001003 28.5181993 2.83509868 3.4818007h-.22510871c-1.64766401 0-3.06264953-.9962151-3.67548051-2.4191692zm3.15687368-3.1492367 5.40205151 6.6310374h-2.68000892l-4.20046828-5.1561883zm4.103356-4.1237939c1.68569519.1301337 3.25253649.8285182 4.49180509 2.0127353 1.4334932 1.3692962 2.2277846 3.205628 2.2393801 5.1735394.0086966 1.2478381-.1710336 2.4392849-.4507749 3.5685566h-1.9378972l-6.76597166-8.3068709zm7.09499389-14.88730085c2.3930204.03614827 4.9266362 1.72644107 5.1889843 4.80627315-4.1019066 3.5931373-2.6510202 7.5448655-1.8596276 9.7021939.0985617.2718349.1913256.5219809.2637975.7475461l.0144943.0477157c1.1015721 3.6263937 1.0595385 7.0836137-.1087077 10.3384033h-1.8784703c.2406065-1.1365014.3869997-2.332286.378303-3.5830159-.0159438-2.6113505-1.0696844-5.0477435-2.9684468-6.8609404-1.3247854-1.2666351-2.9365593-2.100937-4.6816814-2.4710953.54064-1.1495147.8348757-2.4103662.8348757-3.7189333v-4.2770625c0-1.27675669.5029546-2.47398718 1.4146505-3.37046411.9116958-.89647693 2.126324-1.36206657 3.4018285-1.36062064zm12.2547664-6.35786785c2.209139 0 4 1.790861 4 4v24c0 2.209139-1.790861 4-4 4h-6.3004794c.9812688-3.143453 1.1914371-6.8204543-.0840674-11.0179907l-.0246404-.0780802c-.0811685-.2559297-.1855279-.5407781-.298584-.8473153-.7537072-2.0561133-1.6755491-4.5966132 1.2262236-7.1327754h3.4815476l-2.8669863-2.96849537c-.8044375-3.70302811-4.1250975-5.90518031-7.3515442-5.95434195-1.9219534-.03181047-3.7294013.69549259-5.0962203 2.03876206-1.36536961 1.34326946-2.11907683 3.13622333-2.11907683 5.04918946v4.2770625c0 1.7163195-.66963987 3.3285321-1.88571747 4.5416678l-6.6804549 6.6657398v-22.5734227c0-2.209139 1.790861-4 4-4zm-12.5007153 9c-.8268956 0-1.4992847.67127863-1.4992847 1.5 0 .8287214.6723891 1.5 1.4992847 1.5.8283262 0 1.5007153-.6712786 1.5007153-1.5 0-.82872137-.6723891-1.5-1.5007153-1.5z" fill-rule="evenodd"/></svg>