<?xml version="1.0" encoding="UTF-8"?>
<svg width="267px" height="56px" viewBox="0 0 267 56" version="1.1" xmlns="http://www.w3.org/2000/svg" xmlns:xlink="http://www.w3.org/1999/xlink">
    <title>logo-documentation</title>
    <g id="logo-documentation" stroke="none" stroke-width="1" fill="none" fill-rule="evenodd">
        <g id="Group">
            <g id="logo-extended">
                <path d="M26.1301688,56 C11.7214156,56 0,44.2886309 0,29.8922274 L0,5.60565878 C0,2.51527088 2.51627273,0 5.61046753,0 L46.6498701,0 C49.7429091,0 52.2591818,2.51527088 52.2591818,5.60565878 L52.2591818,29.8922274 C52.2591818,44.2886309 40.5389221,56 26.1301688,56" id="Fill-69" fill="#6F839B"></path>
                <path d="M5.61058312,3.1519416 C4.25593377,3.1519416 3.15441429,4.25251696 3.15441429,5.60600524 L3.15441429,29.8925739 C3.15441429,42.5509229 13.4610766,52.8475965 26.1302844,52.8475965 C38.7994922,52.8475965 49.1061545,42.5509229 49.1061545,29.8925739 L49.1061545,5.60600524 C49.1061545,4.25251696 48.0034792,3.1519416 46.6499857,3.1519416 L5.61058312,3.1519416 Z" id="Fill-71" fill="#EEE8E3"></path>
                <g id="Bird" transform="translate(3.374371, 5.818355)" fill="#6F839B">
                    <path d="M24.6437532,0.00141357455 C28.9781688,0.0660853693 33.4408831,3.02943939 34.5204416,8.0114773 L34.5204416,8.0114773 L38.3728701,12.0061155 L33.694013,12.0061155 C29.7976623,15.4175527 31.0355714,18.8359189 32.0492468,21.6029479 C32.1995065,22.0152306 32.3405195,22.3974871 32.448013,22.7416334 L32.448013,22.7416334 L32.4815325,22.8478799 C36.2592067,35.3035883 30.3911511,44.382941 24.9103411,49.7519905 L24.9103411,49.7519905 L17.8624156,48.4198005 L5.3111039,32.9874935 L2.24349351,36.0524746 L0,33.810904 L12.4195455,21.4020034 C14.0527532,19.7701954 14.9531558,17.6002257 14.9531558,15.2916736 L14.9531558,15.2916736 L14.9531558,9.53703874 C14.9531558,6.96287034 15.9645195,4.55038142 17.7988442,2.74303573 C19.6343247,0.936844892 22.0639091,-0.0424708576 24.6437532,0.00141357455 Z M24.5963636,3.17147369 C22.8834026,3.16917666 21.2525065,3.7962621 20.0261558,5.00192913 C18.8021169,6.20875102 18.1271039,7.81861677 18.1271039,9.53703874 L18.1271039,9.53703874 L18.1271039,15.2916736 C18.1271039,17.0528252 17.7306494,18.7481501 17.0036234,20.2968086 C19.3476753,20.7933956 21.5148831,21.917068 23.2948831,23.6193221 C25.8435195,26.0595275 27.2594286,29.3370016 27.2825455,32.8500659 C27.323,39.178663 24.5744026,44.5545059 22.2534675,47.959014 C23.1527143,47.1171258 24.0692987,46.1724556 24.9500519,45.113455 C30.281961,38.6970891 31.7938052,31.5139004 29.4428182,23.7625239 L29.4428182,23.7625239 L29.4231688,23.6978521 C29.3260779,23.3929708 29.2035584,23.0569084 29.0683247,22.6931296 C28.0061039,19.7886731 26.0561948,14.4717277 31.5672597,9.63866585 C31.2135714,5.49505157 27.8096104,3.21999022 24.5963636,3.17147369 Z M9.55305195,28.7503361 L7.56731169,30.7343743 L19.8423766,45.8271544 C20.3451688,45.0672608 20.8618312,44.206895 21.3588442,43.2633797 L21.3588442,43.2633797 L9.55305195,28.7503361 Z M15.0641169,23.2024199 L11.8081039,26.4960621 L22.8036494,40.013622 C23.5884675,37.8575106 24.1247792,35.4415571 24.1085974,32.8696984 C24.0924156,30.2227742 23.0232597,27.7502329 21.0999351,25.9093965 C19.4355195,24.3156987 17.3284156,23.3779577 15.0641169,23.2024199 L15.0641169,23.2024199 Z" id="Fill-74"></path>
                    <path d="M24.6487234,6.95478637 C23.5217753,6.95478637 22.6075026,7.86827547 22.6075026,8.99425761 C22.6075026,10.1190849 23.5217753,11.032574 24.6487234,11.032574 C25.7768273,11.032574 26.6899442,10.1190849 26.6899442,8.99425761 C26.6899442,7.86827547 25.7768273,6.95478637 24.6487234,6.95478637" id="Fill-77"></path>
                </g>
                <g id="Group-99" transform="translate(73.974026, 3.464560)" fill="#6F839B">
                    <path d="M23.3751971,16.0247643 C23.3751971,19.2626226 23.5331489,21.1672451 24.0464925,22.1568383 C21.9931182,23.2234269 18.2820893,24.251923 13.6611568,24.251923 C5.13259575,24.251923 0,18.8436056 0,12.1012419 C0,4.59783977 6.19961107,0 14.4517563,0 C18.1232972,0 21.0067591,0.914218801 22.4669738,1.7522527 C22.5459497,3.5806903 22.6249257,5.33294301 22.7433896,6.89473346 L20.7303433,6.89473346 C19.7826321,2.8950262 17.175586,1.8284376 13.8989248,1.8284376 C8.84446479,1.8284376 7.38340996,4.36928507 7.38340996,10.5021695 C7.38340996,17.7008321 9.47627229,22.4242959 12.7142857,22.4242959 C15.9917871,22.4242959 17.4125138,21.2053375 17.4125138,18.1579415 L17.4125138,17.5865548 C17.4125138,14.3486965 16.5042905,13.7011249 13.4250691,13.4725702 L13.4250691,12.025057 L25.4285714,12.025057 L25.4285714,13.4725702 C24.2044444,13.7011249 23.3751971,14.3486965 23.3751971,16.0247643" id="Fill-81"></path>
                    <path d="M25.4285714,21.8053968 C27.1637709,21.4254931 28.106814,21.2355412 28.106814,19.5639648 L28.106814,11.5488042 C28.106814,10.1811508 27.8050402,9.42134328 25.4285714,9.19259273 L25.4285714,7.97770907 C28.106814,7.55981496 31.0868304,6.95196898 33.9914034,5.77426739 L34.7450353,6.49608449 L34.2177338,11.1689005 L34.6880515,11.1689005 C35.9328684,7.63579571 38.0268256,5.77426739 40.176964,5.77426739 C40.7050682,5.77426739 41.0822854,5.85024814 41.6103896,6.07819038 L41.6103896,11.6627753 C40.6296247,11.1301018 39.6496624,11.0549294 39.0838365,11.0549294 C35.5757159,11.0549294 34.4063424,13.9793798 34.4063424,16.3727734 L34.4063424,19.5639648 C34.4063424,21.2355412 35.3108612,21.4254931 37.1969476,21.8053968 L37.1969476,23.0970696 L25.4285714,23.0970696 L25.4285714,21.8053968 Z" id="Fill-83"></path>
                    <path d="M55.6144395,16.6874825 C55.6144395,13.4722533 55.3359954,8.51782239 52.1537773,8.51782239 C50.2444464,8.51782239 49.5292936,10.8252222 49.5292936,14.4935614 C49.5292936,17.6709644 49.8068914,22.6640263 52.9882632,22.6640263 C54.9382181,22.6640263 55.6144395,20.3566265 55.6144395,16.6874825 M42.7662338,15.7040006 C42.7662338,10.1443501 47.1815614,6.92912087 52.7902209,6.92912087 C58.4386581,6.92912087 62.4155844,10.1443501 62.4155844,15.4770433 C62.4155844,21.0374986 58.0002568,24.251923 52.3526659,24.251923 C46.705075,24.251923 42.7662338,21.0374986 42.7662338,15.7040006" id="Fill-85"></path>
                    <path d="M63.5775131,18.3890825 L63.5775131,10.08859 C63.5775131,8.68060094 62.6276062,8.52829832 61.2597403,8.2998444 L61.2597403,7.15757479 C63.5775131,7.27180175 68.2122503,7.23291598 69.9228911,6.92912087 L69.9228911,18.1225529 C69.9228911,20.2167139 70.9859784,21.0163026 72.1258667,21.0163026 C72.7338071,21.0163026 73.2285671,20.8259243 74.3296507,19.3028982 L74.3296507,10.08859 C74.3296507,8.68060094 73.4177401,8.52829832 72.0126863,8.2998444 L72.0126863,7.15757479 C74.3296507,7.27180175 79.0031926,7.23291598 80.7122166,6.92912087 L80.7122166,20.1024869 C80.7122166,21.4732104 81.0161868,22.2347235 83.2207792,22.6154801 L83.2207792,23.9092422 L75.280366,23.9092422 L75.5075352,20.8259243 L74.785606,20.8259243 C73.3417475,22.5012531 71.7459039,24.251923 68.7070103,24.251923 C64.4894237,24.251923 63.5775131,21.0163026 63.5775131,18.3890825" id="Fill-87"></path>
                    <path d="M99.636073,15.5474996 C99.636073,11.7599187 98.3486073,8.99439626 96.3038088,8.99439626 C94.5619434,8.99439626 93.3880777,11.5696933 93.3880777,12.7819771 L93.3880777,17.1007382 C93.3880777,19.487422 94.3347436,21.6468025 96.5310086,21.6468025 C99.0680734,21.6468025 99.636073,18.6539768 99.636073,15.5474996 M106.337662,14.2215642 C106.337662,20.358751 101.377938,23.3894605 97.0232749,23.3894605 C95.8494092,23.3894605 94.5998101,23.2000411 93.3880777,22.8203964 L93.3880777,25.386021 C93.3880777,27.1665628 94.4112826,27.2423306 96.4174087,27.5832854 L96.4174087,28.8713369 L84.3766234,28.8713369 L84.3766234,27.5832854 C86.1184887,27.2423306 87.064349,27.1665628 87.064349,25.386021 L87.064349,11.5696933 C87.064349,10.2066801 86.7622216,9.44900269 84.3766234,9.18300957 L84.3766234,7.9715318 C87.140888,7.66846085 90.1702191,6.94866733 92.9723503,5.77426739 L93.7288774,6.4940609 L92.2520785,10.7749381 L92.5936839,10.7749381 C93.6531441,8.61555757 96.1144756,6.03945447 99.1816733,6.03945447 C102.627537,6.03945447 106.337662,8.88074466 106.337662,14.2215642" id="Fill-89"></path>
                    <path d="M137.11733,12.4308785 L137.11733,12.7713145 L141.594822,12.7713145 C142.130688,10.0478262 141.671375,7.47564277 139.757569,7.47564277 C138.226524,7.47564277 137.11733,8.95086561 137.11733,12.4308785 M146.762099,18.4066175 L147.604174,19.163142 C146.685547,21.5461943 143.929666,23.0970696 140.14033,23.0970696 C134.55283,23.0970696 130.61039,19.8061878 130.61039,14.4356685 C130.61039,8.76173448 135.240986,5.77426739 140.025501,5.77426739 C146.034853,5.77426739 149.249233,10.5395671 147.450255,14.4356685 L137.269621,14.4356685 C137.806301,17.8013978 139.795845,19.8061878 142.743106,19.8061878 C144.274151,19.8061878 146.034853,19.2387944 146.762099,18.4066175" id="Fill-91"></path>
                    <path d="M178.123036,21.5840908 L178.040723,17.8780976 L180.159193,17.8780976 C181.055102,19.9954631 182.113038,21.5462663 185.045104,21.5462663 C187.3256,21.5462663 187.692108,20.5250056 187.692108,19.7685163 C187.692108,18.7850801 187.162708,17.9907662 184.434257,17.2350816 C181.787252,16.4777874 178,15.0034379 178,11.0696931 C178,7.43854404 181.380887,5.77426739 185.696674,5.77426739 C188.791633,5.77426739 190.502005,6.71987912 191.520084,7.21159722 L191.60153,10.8805707 L189.442337,10.8805707 C188.669464,8.53545365 187.284877,7.32507063 185.370889,7.32507063 C184.027025,7.32507063 183.090393,7.81678873 183.090393,8.8380494 C183.090393,9.7080122 183.82341,10.6157995 186.185352,11.3344644 C189.402481,12.3179006 193.025974,13.8308794 193.025974,17.650346 C193.025974,21.7353887 189.076695,23.0970696 184.515703,23.0970696 C181.176405,23.0970696 179.303141,22.1892823 178.123036,21.5840908" id="Fill-93"></path>
                    <path d="M171.453527,5.77426739 L171.453527,7.09490275 C174.215469,7.25027162 175.149083,7.52216714 173.709761,11.0568088 L171.570229,16.5715772 L168.847188,9.42543575 C168.68993,8.96594059 168.566607,8.5659484 168.466458,8.20314557 C168.273611,7.31803889 168.710622,7.16019073 169.842877,7.09490275 L169.842877,5.77426739 L168.108076,5.77426739 L163.006305,5.77426739 L159.745277,5.77426739 L159.745277,7.09490275 C160.755865,7.2114294 161.223499,7.28911384 161.689479,7.94943152 C162.157114,8.68743363 161.729207,9.50312018 161.456903,10.0857534 L158.888636,16.532735 L155.933019,8.76511807 C155.427311,7.36679827 156.749931,7.25027162 158.033651,7.09490275 L158.033651,5.77426739 L146.792208,5.77426739 L146.792208,7.09490275 C148.464933,7.25027162 148.853111,7.32795605 149.514421,8.76511807 L155.544013,23.0970696 L157.800247,23.0970696 L162.974026,10.5907022 L168.185877,23.0970696 L170.442112,23.0970696 L176.470876,8.76511807 C177.055212,7.32795605 177.521192,7.25027162 179.155844,7.09490275 L179.155844,5.77426739 L171.453527,5.77426739 Z" id="Fill-95"></path>
                    <path d="M131.766234,0 L131.766234,1.29021279 C129.916207,1.3402711 128.388328,1.27245016 128.388328,3.47986052 L128.388328,23.0970696 L125.447563,23.0970696 L110.506142,3.56705888 L110.506142,18.8098168 C110.506142,21.3514876 111.817564,21.4281898 114.082748,21.8076642 L114.082748,23.0970696 L105.181818,23.0970696 L105.181818,21.8076642 C107.248302,21.4281898 108.559724,21.3514876 108.559724,18.8098168 L108.559724,4.28806014 C108.559724,1.745582 107.248302,1.66968713 105.181818,1.29021279 L105.181818,0 L115.871051,0 L126.401324,14.02844 L126.401324,3.47986052 C126.401324,1.27245016 124.73816,1.37337419 122.825564,1.29021279 L122.825564,0 L131.766234,0 Z" id="Fill-97"></path>
                </g>
            </g>
            <path d="M80.6934082,48.7993921 C83.9320331,48.7993921 87.0147883,47.2781155 87.0147883,43.4665653 C87.0147883,39.7386018 83.8627577,38.2674772 80.6934082,38.2674772 L76,38.2674772 L76,38.668693 C76.9005802,38.8358663 77.4374645,38.8693009 77.4374645,39.9893617 L77.4374645,47.0775076 C77.4374645,48.1975684 76.9005802,48.231003 76,48.3981763 L76,48.7993921 L80.6934082,48.7993921 Z M81.178336,48.1641337 C79.8621035,48.1641337 79.4984076,47.712766 79.4984076,46.5592705 L79.4984076,38.8860182 L80.5202197,38.8860182 C83.602975,38.8860182 84.7633379,40.8586626 84.7633379,43.6337386 C84.7633379,46.4422492 83.6202938,48.1641337 81.178336,48.1641337 Z M97.7130828,49 C100.986345,49 103.32439,46.5927052 103.32439,43.4665653 C103.32439,40.3069909 100.986345,38 97.7823582,38 C94.5090956,38 92.1883697,40.4072948 92.1883697,43.550152 C92.1883697,46.6930091 94.5090956,49 97.7130828,49 Z M98.0075032,48.3647416 C95.8772847,48.3647416 94.3878636,46.1914894 94.3878636,43.0486322 C94.3878636,40.2401216 95.6348208,38.6352584 97.4879377,38.6352584 C99.6181562,38.6352584 101.107577,40.8085106 101.107577,43.9680851 C101.107577,46.7598784 99.8606201,48.3647416 98.0075032,48.3647416 Z M114.334424,49 C116.222178,49 117.694281,48.3480243 118.387035,47.612462 L118.00602,47.2446809 C117.313266,47.9635258 116.066309,48.1306991 115.304279,48.1306991 C112.689133,48.1306991 110.749422,46.0243161 110.749422,42.9650456 C110.749422,40.3404255 111.996379,38.6352584 114.351743,38.6352584 C115.771888,38.6352584 117.001527,39.2705167 117.417179,41.0258359 L118.075295,41.0258359 C118.023339,40.3404255 117.988701,39.5714286 117.954063,38.768997 C117.313266,38.4012158 116.100946,38 114.576888,38 C110.92261,38 108.497971,40.3738602 108.497971,43.5334347 C108.497971,46.6762918 110.853335,49 114.334424,49 Z M129.119967,49 C131.284823,49 133.397723,48.0972644 133.397723,44.7203647 L133.397723,39.9893617 C133.397723,38.8693009 133.969245,38.8358663 134.956419,38.668693 L134.956419,38.2674772 L131.18091,38.2674772 L131.18091,38.668693 C132.08149,38.8358663 132.653012,38.8693009 132.653012,39.9893617 L132.653012,45.0547112 C132.653012,47.7963526 130.851852,48.2644377 129.656851,48.2644377 C128.444532,48.2644377 126.81656,47.7963526 126.81656,44.8206687 L126.81656,39.9893617 C126.81656,38.8693009 127.353444,38.8358663 128.254024,38.668693 L128.254024,38.2674772 L123.300833,38.2674772 L123.300833,38.668693 C124.201413,38.8358663 124.738298,38.8693009 124.738298,39.9893617 L124.738298,44.5866261 C124.738298,48.2978723 127.180256,49 129.119967,49 Z M143.212756,48.7993921 L143.212756,48.3981763 C142.225581,48.231003 141.619421,48.1975684 141.671378,47.0775076 L141.983117,40.3069909 L145.775945,48.7993921 L146.295511,48.7993921 L150.036382,39.6215805 L150.348122,47.0775076 C150.400078,48.1975684 149.811237,48.231003 148.910657,48.3981763 L148.910657,48.7993921 L153.863848,48.7993921 L153.863848,48.3981763 C152.963268,48.231003 152.461021,48.1975684 152.409065,47.0775076 L152.080007,39.9893617 C152.02805,38.8693009 152.599572,38.8358663 153.500152,38.668693 L153.500152,38.2674772 L149.793918,38.2674772 C149.724643,38.6519757 149.516817,39.0699088 149.32631,39.5547112 L146.728482,46.0577508 L143.818915,39.5547112 C143.59377,39.0699088 143.351306,38.6519757 143.282031,38.2674772 L139.818261,38.2674772 L139.818261,38.668693 C140.718841,38.8358663 141.325001,38.8693009 141.273044,39.9893617 L140.926667,47.0775076 C140.874711,48.1975684 140.355145,48.231003 139.454565,48.3981763 L139.454565,48.7993921 L143.212756,48.7993921 Z M167.0041,48.7993921 L167.714173,46.2583587 L167.211927,46.2583587 C166.571129,47.6960486 165.930332,48.1641337 164.562143,48.1641337 L163.471055,48.1641337 C162.154822,48.1641337 161.843083,48.0471125 161.843083,46.893617 L161.843083,43.7841945 L163.09004,43.7841945 C165.185621,43.7841945 165.393447,44.168693 165.49736,45.1884498 L165.895694,45.1884498 L165.895694,41.7781155 L165.49736,41.7781155 C165.393447,42.7978723 165.185621,43.1823708 163.09004,43.1823708 L161.843083,43.1823708 L161.843083,40.1732523 C161.843083,39.0721884 162.127127,38.9155153 163.29773,38.9035473 L164.925838,38.9027356 C166.172796,38.9027356 166.467216,39.4878419 166.623086,40.674772 L167.125332,40.674772 L166.969463,38.2674772 L158.344676,38.2674772 L158.344676,38.668693 C159.245256,38.8358663 159.78214,38.8693009 159.78214,39.9893617 L159.78214,47.0775076 C159.78214,48.1975684 159.245256,48.231003 158.344676,48.3981763 L158.344676,48.7993921 L167.0041,48.7993921 Z M176.057104,48.7993921 L176.057104,48.3981763 C175.06993,48.231003 174.498408,48.1975684 174.498408,47.0775076 L174.498408,39.8890578 L181.252759,48.7993921 L182.118701,48.7993921 L182.118701,39.9893617 C182.118701,38.8693009 182.690223,38.8358663 183.590804,38.668693 L183.590804,38.2674772 L179.832613,38.2674772 L179.832613,38.668693 C180.819788,38.8358663 181.39131,38.8693009 181.39131,39.9893617 L181.39131,45.7902736 L175.676089,38.2674772 L172.298914,38.2674772 L172.298914,38.668693 C173.199494,38.8358663 173.771016,38.8693009 173.771016,39.9893617 L173.771016,47.0775076 C173.771016,48.1975684 173.199494,48.231003 172.298914,48.3981763 L172.298914,48.7993921 L176.057104,48.7993921 Z M195.605331,48.7993921 L195.605331,48.3981763 C194.514243,48.231003 193.96004,48.1975684 193.96004,47.0775076 L193.96004,38.8358663 L194.825982,38.8358663 C196.696418,38.8358663 197.146708,39.6215805 197.371853,41.0592705 L197.770187,41.0592705 L197.631636,38.100304 L196.713737,38.2674772 L189.1454,38.2674772 L188.227501,38.100304 L188.08895,41.0592705 L188.487283,41.0592705 C188.712429,39.6215805 189.1454,38.8358663 191.067792,38.8358663 L191.899097,38.8358663 L191.899097,47.0775076 C191.899097,48.1975684 191.344894,48.231003 190.253806,48.3981763 L190.253806,48.7993921 L195.605331,48.7993921 Z M203.775073,48.7993921 L203.775073,48.3981763 C203.030363,48.231003 202.389565,48.2142857 202.718623,47.4620061 L203.532609,45.5896657 L207.862322,45.5896657 L208.693626,47.4452888 C209.040003,48.2142857 208.364568,48.231003 207.619858,48.3981763 L207.619858,48.7993921 L212.382541,48.7993921 L212.382541,48.3981763 C211.481961,48.231003 211.308773,48.2142857 210.962396,47.4452888 L206.771234,38.1504559 L206.061161,38.1504559 L201.956594,47.4452888 C201.627536,48.2142857 201.419709,48.231003 200.519129,48.3981763 L200.519129,48.7993921 L203.775073,48.7993921 Z M207.58522,44.9878419 L203.792392,44.9878419 L205.662828,40.674772 L207.58522,44.9878419 Z M222.665183,48.7993921 L222.665183,48.3981763 C221.574096,48.231003 221.019893,48.1975684 221.019893,47.0775076 L221.019893,38.8358663 L221.885835,38.8358663 C223.756271,38.8358663 224.206561,39.6215805 224.431706,41.0592705 L224.83004,41.0592705 L224.691489,38.100304 L223.77359,38.2674772 L216.205252,38.2674772 L215.287353,38.100304 L215.148803,41.0592705 L215.547136,41.0592705 C215.772281,39.6215805 216.205252,38.8358663 218.127645,38.8358663 L218.95895,38.8358663 L218.95895,47.0775076 C218.95895,48.1975684 218.404746,48.231003 217.313659,48.3981763 L217.313659,48.7993921 L222.665183,48.7993921 Z M234.246739,48.7993921 L234.246739,48.3981763 C233.346159,48.231003 232.809275,48.1975684 232.809275,47.0775076 L232.809275,39.9893617 C232.809275,38.8693009 233.346159,38.8358663 234.246739,38.668693 L234.246739,38.2674772 L229.310867,38.2674772 L229.310867,38.668693 C230.211447,38.8358663 230.748331,38.8693009 230.748331,39.9893617 L230.748331,47.0775076 C230.748331,48.1975684 230.211447,48.231003 229.310867,48.3981763 L229.310867,48.7993921 L234.246739,48.7993921 Z M244.615975,49 C247.889238,49 250.227283,46.5927052 250.227283,43.4665653 C250.227283,40.3069909 247.889238,38 244.685251,38 C241.411988,38 239.091262,40.4072948 239.091262,43.550152 C239.091262,46.6930091 241.411988,49 244.615975,49 Z M244.910396,48.3647416 C242.780177,48.3647416 241.290756,46.1914894 241.290756,43.0486322 C241.290756,40.2401216 242.537713,38.6352584 244.39083,38.6352584 C246.521049,38.6352584 248.01047,40.8085106 248.01047,43.9680851 C248.01047,46.7598784 246.763513,48.3647416 244.910396,48.3647416 Z M258.4663,48.7993921 L258.4663,48.3981763 C257.479126,48.231003 256.907604,48.1975684 256.907604,47.0775076 L256.907604,39.8890578 L263.661955,48.7993921 L264.527898,48.7993921 L264.527898,39.9893617 C264.527898,38.8693009 265.09942,38.8358663 266,38.668693 L266,38.2674772 L262.24181,38.2674772 L262.24181,38.668693 C263.228984,38.8358663 263.800506,38.8693009 263.800506,39.9893617 L263.800506,45.7902736 L258.085286,38.2674772 L254.70811,38.2674772 L254.70811,38.668693 C255.60869,38.8358663 256.180212,38.8693009 256.180212,39.9893617 L256.180212,47.0775076 C256.180212,48.1975684 255.60869,48.231003 254.70811,48.3981763 L254.70811,48.7993921 L258.4663,48.7993921 Z" id="DOCUMENTATION" fill="#272F38" fill-rule="nonzero"></path>
        </g>
    </g>
</svg>